<?xml version="1.0" encoding="utf-8" standalone="no"?>
<!DOCTYPE svg PUBLIC "-//W3C//DTD SVG 1.1//EN"
  "http://www.w3.org/Graphics/SVG/1.1/DTD/svg11.dtd">
<!-- Created with matplotlib (https://matplotlib.org/) -->
<svg height="345.6pt" version="1.1" viewBox="0 0 460.8 345.6" width="460.8pt" xmlns="http://www.w3.org/2000/svg" xmlns:xlink="http://www.w3.org/1999/xlink">
 <metadata>
  <rdf:RDF xmlns:cc="http://creativecommons.org/ns#" xmlns:dc="http://purl.org/dc/elements/1.1/" xmlns:rdf="http://www.w3.org/1999/02/22-rdf-syntax-ns#">
   <cc:Work>
    <dc:type rdf:resource="http://purl.org/dc/dcmitype/StillImage"/>
    <dc:date>2022-12-09T11:04:24.924262</dc:date>
    <dc:format>image/svg+xml</dc:format>
    <dc:creator>
     <cc:Agent>
      <dc:title>Matplotlib v3.3.4, https://matplotlib.org/</dc:title>
     </cc:Agent>
    </dc:creator>
   </cc:Work>
  </rdf:RDF>
 </metadata>
 <defs>
  <style type="text/css">*{stroke-linecap:butt;stroke-linejoin:round;}</style>
 </defs>
 <g id="figure_1">
  <g id="patch_1">
   <path d="M 0 345.6 
L 460.8 345.6 
L 460.8 0 
L 0 0 
z
" style="fill:#ffffff;"/>
  </g>
  <g id="axes_1">
   <g id="patch_2">
    <path d="M 57.6 307.584 
L 414.72 307.584 
L 414.72 41.472 
L 57.6 41.472 
z
" style="fill:#ffffff;"/>
   </g>
   <g id="patch_3">
    <path clip-path="url(#p9ee75234dd)" d="M 92.834949 307.584 
L 98.567951 307.584 
L 98.567951 54.144 
L 92.834949 54.144 
z
" style="fill:#1f77b4;opacity:0.4;"/>
   </g>
   <g id="patch_4">
    <path clip-path="url(#p9ee75234dd)" d="M 98.567951 307.584 
L 104.300953 307.584 
L 104.300953 274.324539 
L 98.567951 274.324539 
z
" style="fill:#1f77b4;opacity:0.4;"/>
   </g>
   <g id="patch_5">
    <path clip-path="url(#p9ee75234dd)" d="M 104.300953 307.584 
L 110.033955 307.584 
L 110.033955 290.300699 
L 104.300953 290.300699 
z
" style="fill:#1f77b4;opacity:0.4;"/>
   </g>
   <g id="patch_6">
    <path clip-path="url(#p9ee75234dd)" d="M 110.033955 307.584 
L 115.766957 307.584 
L 115.766957 291.462602 
L 110.033955 291.462602 
z
" style="fill:#1f77b4;opacity:0.4;"/>
   </g>
   <g id="patch_7">
    <path clip-path="url(#p9ee75234dd)" d="M 115.766957 307.584 
L 121.499959 307.584 
L 121.499959 299.59592 
L 115.766957 299.59592 
z
" style="fill:#1f77b4;opacity:0.4;"/>
   </g>
   <g id="patch_8">
    <path clip-path="url(#p9ee75234dd)" d="M 121.499959 307.584 
L 127.232961 307.584 
L 127.232961 302.355438 
L 121.499959 302.355438 
z
" style="fill:#1f77b4;opacity:0.4;"/>
   </g>
   <g id="patch_9">
    <path clip-path="url(#p9ee75234dd)" d="M 127.232961 307.584 
L 132.965963 307.584 
L 132.965963 302.93639 
L 127.232961 302.93639 
z
" style="fill:#1f77b4;opacity:0.4;"/>
   </g>
   <g id="patch_10">
    <path clip-path="url(#p9ee75234dd)" d="M 132.965963 307.584 
L 138.698965 307.584 
L 138.698965 304.098292 
L 132.965963 304.098292 
z
" style="fill:#1f77b4;opacity:0.4;"/>
   </g>
   <g id="patch_11">
    <path clip-path="url(#p9ee75234dd)" d="M 138.698965 307.584 
L 144.431967 307.584 
L 144.431967 304.24353 
L 138.698965 304.24353 
z
" style="fill:#1f77b4;opacity:0.4;"/>
   </g>
   <g id="patch_12">
    <path clip-path="url(#p9ee75234dd)" d="M 144.431967 307.584 
L 150.164969 307.584 
L 150.164969 305.841146 
L 144.431967 305.841146 
z
" style="fill:#1f77b4;opacity:0.4;"/>
   </g>
   <g id="patch_13">
    <path clip-path="url(#p9ee75234dd)" d="M 150.164969 307.584 
L 155.897971 307.584 
L 155.897971 306.27686 
L 150.164969 306.27686 
z
" style="fill:#1f77b4;opacity:0.4;"/>
   </g>
   <g id="patch_14">
    <path clip-path="url(#p9ee75234dd)" d="M 155.897971 307.584 
L 161.630973 307.584 
L 161.630973 306.422097 
L 155.897971 306.422097 
z
" style="fill:#1f77b4;opacity:0.4;"/>
   </g>
   <g id="patch_15">
    <path clip-path="url(#p9ee75234dd)" d="M 161.630973 307.584 
L 167.363975 307.584 
L 167.363975 306.857811 
L 161.630973 306.857811 
z
" style="fill:#1f77b4;opacity:0.4;"/>
   </g>
   <g id="patch_16">
    <path clip-path="url(#p9ee75234dd)" d="M 167.363975 307.584 
L 173.096977 307.584 
L 173.096977 306.712573 
L 167.363975 306.712573 
z
" style="fill:#1f77b4;opacity:0.4;"/>
   </g>
   <g id="patch_17">
    <path clip-path="url(#p9ee75234dd)" d="M 173.096977 307.584 
L 178.829979 307.584 
L 178.829979 307.003049 
L 173.096977 307.003049 
z
" style="fill:#1f77b4;opacity:0.4;"/>
   </g>
   <g id="patch_18">
    <path clip-path="url(#p9ee75234dd)" d="M 178.829979 307.584 
L 184.562981 307.584 
L 184.562981 307.293524 
L 178.829979 307.293524 
z
" style="fill:#1f77b4;opacity:0.4;"/>
   </g>
   <g id="patch_19">
    <path clip-path="url(#p9ee75234dd)" d="M 184.562981 307.584 
L 190.295984 307.584 
L 190.295984 306.857811 
L 184.562981 306.857811 
z
" style="fill:#1f77b4;opacity:0.4;"/>
   </g>
   <g id="patch_20">
    <path clip-path="url(#p9ee75234dd)" d="M 190.295984 307.584 
L 196.028986 307.584 
L 196.028986 307.293524 
L 190.295984 307.293524 
z
" style="fill:#1f77b4;opacity:0.4;"/>
   </g>
   <g id="patch_21">
    <path clip-path="url(#p9ee75234dd)" d="M 196.028986 307.584 
L 201.761988 307.584 
L 201.761988 306.712573 
L 196.028986 306.712573 
z
" style="fill:#1f77b4;opacity:0.4;"/>
   </g>
   <g id="patch_22">
    <path clip-path="url(#p9ee75234dd)" d="M 201.761988 307.584 
L 207.49499 307.584 
L 207.49499 307.003049 
L 201.761988 307.003049 
z
" style="fill:#1f77b4;opacity:0.4;"/>
   </g>
   <g id="patch_23">
    <path clip-path="url(#p9ee75234dd)" d="M 207.49499 307.584 
L 213.227992 307.584 
L 213.227992 307.003049 
L 207.49499 307.003049 
z
" style="fill:#1f77b4;opacity:0.4;"/>
   </g>
   <g id="patch_24">
    <path clip-path="url(#p9ee75234dd)" d="M 213.227992 307.584 
L 218.960994 307.584 
L 218.960994 307.293524 
L 213.227992 307.293524 
z
" style="fill:#1f77b4;opacity:0.4;"/>
   </g>
   <g id="patch_25">
    <path clip-path="url(#p9ee75234dd)" d="M 218.960994 307.584 
L 224.693996 307.584 
L 224.693996 307.438762 
L 218.960994 307.438762 
z
" style="fill:#1f77b4;opacity:0.4;"/>
   </g>
   <g id="patch_26">
    <path clip-path="url(#p9ee75234dd)" d="M 224.693996 307.584 
L 230.426998 307.584 
L 230.426998 307.003049 
L 224.693996 307.003049 
z
" style="fill:#1f77b4;opacity:0.4;"/>
   </g>
   <g id="patch_27">
    <path clip-path="url(#p9ee75234dd)" d="M 230.426998 307.584 
L 236.16 307.584 
L 236.16 307.148287 
L 230.426998 307.148287 
z
" style="fill:#1f77b4;opacity:0.4;"/>
   </g>
   <g id="patch_28">
    <path clip-path="url(#p9ee75234dd)" d="M 236.16 307.584 
L 241.893002 307.584 
L 241.893002 305.405433 
L 236.16 305.405433 
z
" style="fill:#1f77b4;opacity:0.4;"/>
   </g>
   <g id="patch_29">
    <path clip-path="url(#p9ee75234dd)" d="M 241.893002 307.584 
L 247.626004 307.584 
L 247.626004 304.679244 
L 241.893002 304.679244 
z
" style="fill:#1f77b4;opacity:0.4;"/>
   </g>
   <g id="patch_30">
    <path clip-path="url(#p9ee75234dd)" d="M 247.626004 307.584 
L 253.359006 307.584 
L 253.359006 306.131622 
L 247.626004 306.131622 
z
" style="fill:#1f77b4;opacity:0.4;"/>
   </g>
   <g id="patch_31">
    <path clip-path="url(#p9ee75234dd)" d="M 253.359006 307.584 
L 259.092008 307.584 
L 259.092008 307.584 
L 253.359006 307.584 
z
" style="fill:#1f77b4;opacity:0.4;"/>
   </g>
   <g id="patch_32">
    <path clip-path="url(#p9ee75234dd)" d="M 259.092008 307.584 
L 264.82501 307.584 
L 264.82501 307.584 
L 259.092008 307.584 
z
" style="fill:#1f77b4;opacity:0.4;"/>
   </g>
   <g id="patch_33">
    <path clip-path="url(#p9ee75234dd)" d="M 264.82501 307.584 
L 270.558012 307.584 
L 270.558012 307.584 
L 264.82501 307.584 
z
" style="fill:#1f77b4;opacity:0.4;"/>
   </g>
   <g id="patch_34">
    <path clip-path="url(#p9ee75234dd)" d="M 270.558012 307.584 
L 276.291014 307.584 
L 276.291014 307.584 
L 270.558012 307.584 
z
" style="fill:#1f77b4;opacity:0.4;"/>
   </g>
   <g id="patch_35">
    <path clip-path="url(#p9ee75234dd)" d="M 276.291014 307.584 
L 282.024016 307.584 
L 282.024016 307.438762 
L 276.291014 307.438762 
z
" style="fill:#1f77b4;opacity:0.4;"/>
   </g>
   <g id="patch_36">
    <path clip-path="url(#p9ee75234dd)" d="M 282.024016 307.584 
L 287.757019 307.584 
L 287.757019 307.438762 
L 282.024016 307.438762 
z
" style="fill:#1f77b4;opacity:0.4;"/>
   </g>
   <g id="patch_37">
    <path clip-path="url(#p9ee75234dd)" d="M 287.757019 307.584 
L 293.490021 307.584 
L 293.490021 307.584 
L 287.757019 307.584 
z
" style="fill:#1f77b4;opacity:0.4;"/>
   </g>
   <g id="patch_38">
    <path clip-path="url(#p9ee75234dd)" d="M 293.490021 307.584 
L 299.223023 307.584 
L 299.223023 307.584 
L 293.490021 307.584 
z
" style="fill:#1f77b4;opacity:0.4;"/>
   </g>
   <g id="patch_39">
    <path clip-path="url(#p9ee75234dd)" d="M 299.223023 307.584 
L 304.956025 307.584 
L 304.956025 307.584 
L 299.223023 307.584 
z
" style="fill:#1f77b4;opacity:0.4;"/>
   </g>
   <g id="patch_40">
    <path clip-path="url(#p9ee75234dd)" d="M 304.956025 307.584 
L 310.689027 307.584 
L 310.689027 307.584 
L 304.956025 307.584 
z
" style="fill:#1f77b4;opacity:0.4;"/>
   </g>
   <g id="patch_41">
    <path clip-path="url(#p9ee75234dd)" d="M 310.689027 307.584 
L 316.422029 307.584 
L 316.422029 307.293524 
L 310.689027 307.293524 
z
" style="fill:#1f77b4;opacity:0.4;"/>
   </g>
   <g id="patch_42">
    <path clip-path="url(#p9ee75234dd)" d="M 316.422029 307.584 
L 322.155031 307.584 
L 322.155031 307.584 
L 316.422029 307.584 
z
" style="fill:#1f77b4;opacity:0.4;"/>
   </g>
   <g id="patch_43">
    <path clip-path="url(#p9ee75234dd)" d="M 322.155031 307.584 
L 327.888033 307.584 
L 327.888033 307.438762 
L 322.155031 307.438762 
z
" style="fill:#1f77b4;opacity:0.4;"/>
   </g>
   <g id="patch_44">
    <path clip-path="url(#p9ee75234dd)" d="M 327.888033 307.584 
L 333.621035 307.584 
L 333.621035 307.438762 
L 327.888033 307.438762 
z
" style="fill:#1f77b4;opacity:0.4;"/>
   </g>
   <g id="patch_45">
    <path clip-path="url(#p9ee75234dd)" d="M 333.621035 307.584 
L 339.354037 307.584 
L 339.354037 307.584 
L 333.621035 307.584 
z
" style="fill:#1f77b4;opacity:0.4;"/>
   </g>
   <g id="patch_46">
    <path clip-path="url(#p9ee75234dd)" d="M 339.354037 307.584 
L 345.087039 307.584 
L 345.087039 307.584 
L 339.354037 307.584 
z
" style="fill:#1f77b4;opacity:0.4;"/>
   </g>
   <g id="patch_47">
    <path clip-path="url(#p9ee75234dd)" d="M 345.087039 307.584 
L 350.820041 307.584 
L 350.820041 307.293524 
L 345.087039 307.293524 
z
" style="fill:#1f77b4;opacity:0.4;"/>
   </g>
   <g id="patch_48">
    <path clip-path="url(#p9ee75234dd)" d="M 350.820041 307.584 
L 356.553043 307.584 
L 356.553043 307.293524 
L 350.820041 307.293524 
z
" style="fill:#1f77b4;opacity:0.4;"/>
   </g>
   <g id="patch_49">
    <path clip-path="url(#p9ee75234dd)" d="M 356.553043 307.584 
L 362.286045 307.584 
L 362.286045 307.584 
L 356.553043 307.584 
z
" style="fill:#1f77b4;opacity:0.4;"/>
   </g>
   <g id="patch_50">
    <path clip-path="url(#p9ee75234dd)" d="M 362.286045 307.584 
L 368.019047 307.584 
L 368.019047 307.584 
L 362.286045 307.584 
z
" style="fill:#1f77b4;opacity:0.4;"/>
   </g>
   <g id="patch_51">
    <path clip-path="url(#p9ee75234dd)" d="M 368.019047 307.584 
L 373.752049 307.584 
L 373.752049 307.584 
L 368.019047 307.584 
z
" style="fill:#1f77b4;opacity:0.4;"/>
   </g>
   <g id="patch_52">
    <path clip-path="url(#p9ee75234dd)" d="M 373.752049 307.584 
L 379.485051 307.584 
L 379.485051 307.293524 
L 373.752049 307.293524 
z
" style="fill:#1f77b4;opacity:0.4;"/>
   </g>
   <g id="matplotlib.axis_1">
    <g id="xtick_1">
     <g id="line2d_1">
      <defs>
       <path d="M 0 0 
L 0 3.5 
" id="m013c2b4d9a" style="stroke:#000000;stroke-width:0.8;"/>
      </defs>
      <g>
       <use style="stroke:#000000;stroke-width:0.8;" x="92.013602" xlink:href="#m013c2b4d9a" y="307.584"/>
      </g>
     </g>
     <g id="text_1">
      <!-- 0 -->
      <g transform="translate(88.832352 322.182437)scale(0.1 -0.1)">
       <defs>
        <path d="M 31.78125 66.40625 
Q 24.171875 66.40625 20.328125 58.90625 
Q 16.5 51.421875 16.5 36.375 
Q 16.5 21.390625 20.328125 13.890625 
Q 24.171875 6.390625 31.78125 6.390625 
Q 39.453125 6.390625 43.28125 13.890625 
Q 47.125 21.390625 47.125 36.375 
Q 47.125 51.421875 43.28125 58.90625 
Q 39.453125 66.40625 31.78125 66.40625 
z
M 31.78125 74.21875 
Q 44.046875 74.21875 50.515625 64.515625 
Q 56.984375 54.828125 56.984375 36.375 
Q 56.984375 17.96875 50.515625 8.265625 
Q 44.046875 -1.421875 31.78125 -1.421875 
Q 19.53125 -1.421875 13.0625 8.265625 
Q 6.59375 17.96875 6.59375 36.375 
Q 6.59375 54.828125 13.0625 64.515625 
Q 19.53125 74.21875 31.78125 74.21875 
z
" id="DejaVuSans-48"/>
       </defs>
       <use xlink:href="#DejaVuSans-48"/>
      </g>
     </g>
    </g>
    <g id="xtick_2">
     <g id="line2d_2">
      <g>
       <use style="stroke:#000000;stroke-width:0.8;" x="133.080952" xlink:href="#m013c2b4d9a" y="307.584"/>
      </g>
     </g>
     <g id="text_2">
      <!-- 50 -->
      <g transform="translate(126.718452 322.182437)scale(0.1 -0.1)">
       <defs>
        <path d="M 10.796875 72.90625 
L 49.515625 72.90625 
L 49.515625 64.59375 
L 19.828125 64.59375 
L 19.828125 46.734375 
Q 21.96875 47.46875 24.109375 47.828125 
Q 26.265625 48.1875 28.421875 48.1875 
Q 40.625 48.1875 47.75 41.5 
Q 54.890625 34.8125 54.890625 23.390625 
Q 54.890625 11.625 47.5625 5.09375 
Q 40.234375 -1.421875 26.90625 -1.421875 
Q 22.3125 -1.421875 17.546875 -0.640625 
Q 12.796875 0.140625 7.71875 1.703125 
L 7.71875 11.625 
Q 12.109375 9.234375 16.796875 8.0625 
Q 21.484375 6.890625 26.703125 6.890625 
Q 35.15625 6.890625 40.078125 11.328125 
Q 45.015625 15.765625 45.015625 23.390625 
Q 45.015625 31 40.078125 35.4375 
Q 35.15625 39.890625 26.703125 39.890625 
Q 22.75 39.890625 18.8125 39.015625 
Q 14.890625 38.140625 10.796875 36.28125 
z
" id="DejaVuSans-53"/>
       </defs>
       <use xlink:href="#DejaVuSans-53"/>
       <use x="63.623047" xlink:href="#DejaVuSans-48"/>
      </g>
     </g>
    </g>
    <g id="xtick_3">
     <g id="line2d_3">
      <g>
       <use style="stroke:#000000;stroke-width:0.8;" x="174.148302" xlink:href="#m013c2b4d9a" y="307.584"/>
      </g>
     </g>
     <g id="text_3">
      <!-- 100 -->
      <g transform="translate(164.604552 322.182437)scale(0.1 -0.1)">
       <defs>
        <path d="M 12.40625 8.296875 
L 28.515625 8.296875 
L 28.515625 63.921875 
L 10.984375 60.40625 
L 10.984375 69.390625 
L 28.421875 72.90625 
L 38.28125 72.90625 
L 38.28125 8.296875 
L 54.390625 8.296875 
L 54.390625 0 
L 12.40625 0 
z
" id="DejaVuSans-49"/>
       </defs>
       <use xlink:href="#DejaVuSans-49"/>
       <use x="63.623047" xlink:href="#DejaVuSans-48"/>
       <use x="127.246094" xlink:href="#DejaVuSans-48"/>
      </g>
     </g>
    </g>
    <g id="xtick_4">
     <g id="line2d_4">
      <g>
       <use style="stroke:#000000;stroke-width:0.8;" x="215.215652" xlink:href="#m013c2b4d9a" y="307.584"/>
      </g>
     </g>
     <g id="text_4">
      <!-- 150 -->
      <g transform="translate(205.671902 322.182437)scale(0.1 -0.1)">
       <use xlink:href="#DejaVuSans-49"/>
       <use x="63.623047" xlink:href="#DejaVuSans-53"/>
       <use x="127.246094" xlink:href="#DejaVuSans-48"/>
      </g>
     </g>
    </g>
    <g id="xtick_5">
     <g id="line2d_5">
      <g>
       <use style="stroke:#000000;stroke-width:0.8;" x="256.283001" xlink:href="#m013c2b4d9a" y="307.584"/>
      </g>
     </g>
     <g id="text_5">
      <!-- 200 -->
      <g transform="translate(246.739251 322.182437)scale(0.1 -0.1)">
       <defs>
        <path d="M 19.1875 8.296875 
L 53.609375 8.296875 
L 53.609375 0 
L 7.328125 0 
L 7.328125 8.296875 
Q 12.9375 14.109375 22.625 23.890625 
Q 32.328125 33.6875 34.8125 36.53125 
Q 39.546875 41.84375 41.421875 45.53125 
Q 43.3125 49.21875 43.3125 52.78125 
Q 43.3125 58.59375 39.234375 62.25 
Q 35.15625 65.921875 28.609375 65.921875 
Q 23.96875 65.921875 18.8125 64.3125 
Q 13.671875 62.703125 7.8125 59.421875 
L 7.8125 69.390625 
Q 13.765625 71.78125 18.9375 73 
Q 24.125 74.21875 28.421875 74.21875 
Q 39.75 74.21875 46.484375 68.546875 
Q 53.21875 62.890625 53.21875 53.421875 
Q 53.21875 48.921875 51.53125 44.890625 
Q 49.859375 40.875 45.40625 35.40625 
Q 44.1875 33.984375 37.640625 27.21875 
Q 31.109375 20.453125 19.1875 8.296875 
z
" id="DejaVuSans-50"/>
       </defs>
       <use xlink:href="#DejaVuSans-50"/>
       <use x="63.623047" xlink:href="#DejaVuSans-48"/>
       <use x="127.246094" xlink:href="#DejaVuSans-48"/>
      </g>
     </g>
    </g>
    <g id="xtick_6">
     <g id="line2d_6">
      <g>
       <use style="stroke:#000000;stroke-width:0.8;" x="297.350351" xlink:href="#m013c2b4d9a" y="307.584"/>
      </g>
     </g>
     <g id="text_6">
      <!-- 250 -->
      <g transform="translate(287.806601 322.182437)scale(0.1 -0.1)">
       <use xlink:href="#DejaVuSans-50"/>
       <use x="63.623047" xlink:href="#DejaVuSans-53"/>
       <use x="127.246094" xlink:href="#DejaVuSans-48"/>
      </g>
     </g>
    </g>
    <g id="xtick_7">
     <g id="line2d_7">
      <g>
       <use style="stroke:#000000;stroke-width:0.8;" x="338.417701" xlink:href="#m013c2b4d9a" y="307.584"/>
      </g>
     </g>
     <g id="text_7">
      <!-- 300 -->
      <g transform="translate(328.873951 322.182437)scale(0.1 -0.1)">
       <defs>
        <path d="M 40.578125 39.3125 
Q 47.65625 37.796875 51.625 33 
Q 55.609375 28.21875 55.609375 21.1875 
Q 55.609375 10.40625 48.1875 4.484375 
Q 40.765625 -1.421875 27.09375 -1.421875 
Q 22.515625 -1.421875 17.65625 -0.515625 
Q 12.796875 0.390625 7.625 2.203125 
L 7.625 11.71875 
Q 11.71875 9.328125 16.59375 8.109375 
Q 21.484375 6.890625 26.8125 6.890625 
Q 36.078125 6.890625 40.9375 10.546875 
Q 45.796875 14.203125 45.796875 21.1875 
Q 45.796875 27.640625 41.28125 31.265625 
Q 36.765625 34.90625 28.71875 34.90625 
L 20.21875 34.90625 
L 20.21875 43.015625 
L 29.109375 43.015625 
Q 36.375 43.015625 40.234375 45.921875 
Q 44.09375 48.828125 44.09375 54.296875 
Q 44.09375 59.90625 40.109375 62.90625 
Q 36.140625 65.921875 28.71875 65.921875 
Q 24.65625 65.921875 20.015625 65.03125 
Q 15.375 64.15625 9.8125 62.3125 
L 9.8125 71.09375 
Q 15.4375 72.65625 20.34375 73.4375 
Q 25.25 74.21875 29.59375 74.21875 
Q 40.828125 74.21875 47.359375 69.109375 
Q 53.90625 64.015625 53.90625 55.328125 
Q 53.90625 49.265625 50.4375 45.09375 
Q 46.96875 40.921875 40.578125 39.3125 
z
" id="DejaVuSans-51"/>
       </defs>
       <use xlink:href="#DejaVuSans-51"/>
       <use x="63.623047" xlink:href="#DejaVuSans-48"/>
       <use x="127.246094" xlink:href="#DejaVuSans-48"/>
      </g>
     </g>
    </g>
    <g id="xtick_8">
     <g id="line2d_8">
      <g>
       <use style="stroke:#000000;stroke-width:0.8;" x="379.485051" xlink:href="#m013c2b4d9a" y="307.584"/>
      </g>
     </g>
     <g id="text_8">
      <!-- 350 -->
      <g transform="translate(369.941301 322.182437)scale(0.1 -0.1)">
       <use xlink:href="#DejaVuSans-51"/>
       <use x="63.623047" xlink:href="#DejaVuSans-53"/>
       <use x="127.246094" xlink:href="#DejaVuSans-48"/>
      </g>
     </g>
    </g>
    <g id="text_9">
     <!-- copy number -->
     <g transform="translate(203.114688 335.860562)scale(0.1 -0.1)">
      <defs>
       <path d="M 48.78125 52.59375 
L 48.78125 44.1875 
Q 44.96875 46.296875 41.140625 47.34375 
Q 37.3125 48.390625 33.40625 48.390625 
Q 24.65625 48.390625 19.8125 42.84375 
Q 14.984375 37.3125 14.984375 27.296875 
Q 14.984375 17.28125 19.8125 11.734375 
Q 24.65625 6.203125 33.40625 6.203125 
Q 37.3125 6.203125 41.140625 7.25 
Q 44.96875 8.296875 48.78125 10.40625 
L 48.78125 2.09375 
Q 45.015625 0.34375 40.984375 -0.53125 
Q 36.96875 -1.421875 32.421875 -1.421875 
Q 20.0625 -1.421875 12.78125 6.34375 
Q 5.515625 14.109375 5.515625 27.296875 
Q 5.515625 40.671875 12.859375 48.328125 
Q 20.21875 56 33.015625 56 
Q 37.15625 56 41.109375 55.140625 
Q 45.0625 54.296875 48.78125 52.59375 
z
" id="DejaVuSans-99"/>
       <path d="M 30.609375 48.390625 
Q 23.390625 48.390625 19.1875 42.75 
Q 14.984375 37.109375 14.984375 27.296875 
Q 14.984375 17.484375 19.15625 11.84375 
Q 23.34375 6.203125 30.609375 6.203125 
Q 37.796875 6.203125 41.984375 11.859375 
Q 46.1875 17.53125 46.1875 27.296875 
Q 46.1875 37.015625 41.984375 42.703125 
Q 37.796875 48.390625 30.609375 48.390625 
z
M 30.609375 56 
Q 42.328125 56 49.015625 48.375 
Q 55.71875 40.765625 55.71875 27.296875 
Q 55.71875 13.875 49.015625 6.21875 
Q 42.328125 -1.421875 30.609375 -1.421875 
Q 18.84375 -1.421875 12.171875 6.21875 
Q 5.515625 13.875 5.515625 27.296875 
Q 5.515625 40.765625 12.171875 48.375 
Q 18.84375 56 30.609375 56 
z
" id="DejaVuSans-111"/>
       <path d="M 18.109375 8.203125 
L 18.109375 -20.796875 
L 9.078125 -20.796875 
L 9.078125 54.6875 
L 18.109375 54.6875 
L 18.109375 46.390625 
Q 20.953125 51.265625 25.265625 53.625 
Q 29.59375 56 35.59375 56 
Q 45.5625 56 51.78125 48.09375 
Q 58.015625 40.1875 58.015625 27.296875 
Q 58.015625 14.40625 51.78125 6.484375 
Q 45.5625 -1.421875 35.59375 -1.421875 
Q 29.59375 -1.421875 25.265625 0.953125 
Q 20.953125 3.328125 18.109375 8.203125 
z
M 48.6875 27.296875 
Q 48.6875 37.203125 44.609375 42.84375 
Q 40.53125 48.484375 33.40625 48.484375 
Q 26.265625 48.484375 22.1875 42.84375 
Q 18.109375 37.203125 18.109375 27.296875 
Q 18.109375 17.390625 22.1875 11.75 
Q 26.265625 6.109375 33.40625 6.109375 
Q 40.53125 6.109375 44.609375 11.75 
Q 48.6875 17.390625 48.6875 27.296875 
z
" id="DejaVuSans-112"/>
       <path d="M 32.171875 -5.078125 
Q 28.375 -14.84375 24.75 -17.8125 
Q 21.140625 -20.796875 15.09375 -20.796875 
L 7.90625 -20.796875 
L 7.90625 -13.28125 
L 13.1875 -13.28125 
Q 16.890625 -13.28125 18.9375 -11.515625 
Q 21 -9.765625 23.484375 -3.21875 
L 25.09375 0.875 
L 2.984375 54.6875 
L 12.5 54.6875 
L 29.59375 11.921875 
L 46.6875 54.6875 
L 56.203125 54.6875 
z
" id="DejaVuSans-121"/>
       <path id="DejaVuSans-32"/>
       <path d="M 54.890625 33.015625 
L 54.890625 0 
L 45.90625 0 
L 45.90625 32.71875 
Q 45.90625 40.484375 42.875 44.328125 
Q 39.84375 48.1875 33.796875 48.1875 
Q 26.515625 48.1875 22.3125 43.546875 
Q 18.109375 38.921875 18.109375 30.90625 
L 18.109375 0 
L 9.078125 0 
L 9.078125 54.6875 
L 18.109375 54.6875 
L 18.109375 46.1875 
Q 21.34375 51.125 25.703125 53.5625 
Q 30.078125 56 35.796875 56 
Q 45.21875 56 50.046875 50.171875 
Q 54.890625 44.34375 54.890625 33.015625 
z
" id="DejaVuSans-110"/>
       <path d="M 8.5 21.578125 
L 8.5 54.6875 
L 17.484375 54.6875 
L 17.484375 21.921875 
Q 17.484375 14.15625 20.5 10.265625 
Q 23.53125 6.390625 29.59375 6.390625 
Q 36.859375 6.390625 41.078125 11.03125 
Q 45.3125 15.671875 45.3125 23.6875 
L 45.3125 54.6875 
L 54.296875 54.6875 
L 54.296875 0 
L 45.3125 0 
L 45.3125 8.40625 
Q 42.046875 3.421875 37.71875 1 
Q 33.40625 -1.421875 27.6875 -1.421875 
Q 18.265625 -1.421875 13.375 4.4375 
Q 8.5 10.296875 8.5 21.578125 
z
M 31.109375 56 
z
" id="DejaVuSans-117"/>
       <path d="M 52 44.1875 
Q 55.375 50.25 60.0625 53.125 
Q 64.75 56 71.09375 56 
Q 79.640625 56 84.28125 50.015625 
Q 88.921875 44.046875 88.921875 33.015625 
L 88.921875 0 
L 79.890625 0 
L 79.890625 32.71875 
Q 79.890625 40.578125 77.09375 44.375 
Q 74.3125 48.1875 68.609375 48.1875 
Q 61.625 48.1875 57.5625 43.546875 
Q 53.515625 38.921875 53.515625 30.90625 
L 53.515625 0 
L 44.484375 0 
L 44.484375 32.71875 
Q 44.484375 40.625 41.703125 44.40625 
Q 38.921875 48.1875 33.109375 48.1875 
Q 26.21875 48.1875 22.15625 43.53125 
Q 18.109375 38.875 18.109375 30.90625 
L 18.109375 0 
L 9.078125 0 
L 9.078125 54.6875 
L 18.109375 54.6875 
L 18.109375 46.1875 
Q 21.1875 51.21875 25.484375 53.609375 
Q 29.78125 56 35.6875 56 
Q 41.65625 56 45.828125 52.96875 
Q 50 49.953125 52 44.1875 
z
" id="DejaVuSans-109"/>
       <path d="M 48.6875 27.296875 
Q 48.6875 37.203125 44.609375 42.84375 
Q 40.53125 48.484375 33.40625 48.484375 
Q 26.265625 48.484375 22.1875 42.84375 
Q 18.109375 37.203125 18.109375 27.296875 
Q 18.109375 17.390625 22.1875 11.75 
Q 26.265625 6.109375 33.40625 6.109375 
Q 40.53125 6.109375 44.609375 11.75 
Q 48.6875 17.390625 48.6875 27.296875 
z
M 18.109375 46.390625 
Q 20.953125 51.265625 25.265625 53.625 
Q 29.59375 56 35.59375 56 
Q 45.5625 56 51.78125 48.09375 
Q 58.015625 40.1875 58.015625 27.296875 
Q 58.015625 14.40625 51.78125 6.484375 
Q 45.5625 -1.421875 35.59375 -1.421875 
Q 29.59375 -1.421875 25.265625 0.953125 
Q 20.953125 3.328125 18.109375 8.203125 
L 18.109375 0 
L 9.078125 0 
L 9.078125 75.984375 
L 18.109375 75.984375 
z
" id="DejaVuSans-98"/>
       <path d="M 56.203125 29.59375 
L 56.203125 25.203125 
L 14.890625 25.203125 
Q 15.484375 15.921875 20.484375 11.0625 
Q 25.484375 6.203125 34.421875 6.203125 
Q 39.59375 6.203125 44.453125 7.46875 
Q 49.3125 8.734375 54.109375 11.28125 
L 54.109375 2.78125 
Q 49.265625 0.734375 44.1875 -0.34375 
Q 39.109375 -1.421875 33.890625 -1.421875 
Q 20.796875 -1.421875 13.15625 6.1875 
Q 5.515625 13.8125 5.515625 26.8125 
Q 5.515625 40.234375 12.765625 48.109375 
Q 20.015625 56 32.328125 56 
Q 43.359375 56 49.78125 48.890625 
Q 56.203125 41.796875 56.203125 29.59375 
z
M 47.21875 32.234375 
Q 47.125 39.59375 43.09375 43.984375 
Q 39.0625 48.390625 32.421875 48.390625 
Q 24.90625 48.390625 20.390625 44.140625 
Q 15.875 39.890625 15.1875 32.171875 
z
" id="DejaVuSans-101"/>
       <path d="M 41.109375 46.296875 
Q 39.59375 47.171875 37.8125 47.578125 
Q 36.03125 48 33.890625 48 
Q 26.265625 48 22.1875 43.046875 
Q 18.109375 38.09375 18.109375 28.8125 
L 18.109375 0 
L 9.078125 0 
L 9.078125 54.6875 
L 18.109375 54.6875 
L 18.109375 46.1875 
Q 20.953125 51.171875 25.484375 53.578125 
Q 30.03125 56 36.53125 56 
Q 37.453125 56 38.578125 55.875 
Q 39.703125 55.765625 41.0625 55.515625 
z
" id="DejaVuSans-114"/>
      </defs>
      <use xlink:href="#DejaVuSans-99"/>
      <use x="54.980469" xlink:href="#DejaVuSans-111"/>
      <use x="116.162109" xlink:href="#DejaVuSans-112"/>
      <use x="179.638672" xlink:href="#DejaVuSans-121"/>
      <use x="238.818359" xlink:href="#DejaVuSans-32"/>
      <use x="270.605469" xlink:href="#DejaVuSans-110"/>
      <use x="333.984375" xlink:href="#DejaVuSans-117"/>
      <use x="397.363281" xlink:href="#DejaVuSans-109"/>
      <use x="494.775391" xlink:href="#DejaVuSans-98"/>
      <use x="558.251953" xlink:href="#DejaVuSans-101"/>
      <use x="619.775391" xlink:href="#DejaVuSans-114"/>
     </g>
    </g>
   </g>
   <g id="matplotlib.axis_2">
    <g id="ytick_1">
     <g id="line2d_9">
      <defs>
       <path d="M 0 0 
L -3.5 0 
" id="m7ef4213708" style="stroke:#000000;stroke-width:0.8;"/>
      </defs>
      <g>
       <use style="stroke:#000000;stroke-width:0.8;" x="57.6" xlink:href="#m7ef4213708" y="307.584"/>
      </g>
     </g>
     <g id="text_10">
      <!-- 0.00 -->
      <g transform="translate(28.334375 311.383219)scale(0.1 -0.1)">
       <defs>
        <path d="M 10.6875 12.40625 
L 21 12.40625 
L 21 0 
L 10.6875 0 
z
" id="DejaVuSans-46"/>
       </defs>
       <use xlink:href="#DejaVuSans-48"/>
       <use x="63.623047" xlink:href="#DejaVuSans-46"/>
       <use x="95.410156" xlink:href="#DejaVuSans-48"/>
       <use x="159.033203" xlink:href="#DejaVuSans-48"/>
      </g>
     </g>
    </g>
    <g id="ytick_2">
     <g id="line2d_10">
      <g>
       <use style="stroke:#000000;stroke-width:0.8;" x="57.6" xlink:href="#m7ef4213708" y="256.733798"/>
      </g>
     </g>
     <g id="text_11">
      <!-- 0.02 -->
      <g transform="translate(28.334375 260.533017)scale(0.1 -0.1)">
       <use xlink:href="#DejaVuSans-48"/>
       <use x="63.623047" xlink:href="#DejaVuSans-46"/>
       <use x="95.410156" xlink:href="#DejaVuSans-48"/>
       <use x="159.033203" xlink:href="#DejaVuSans-50"/>
      </g>
     </g>
    </g>
    <g id="ytick_3">
     <g id="line2d_11">
      <g>
       <use style="stroke:#000000;stroke-width:0.8;" x="57.6" xlink:href="#m7ef4213708" y="205.883597"/>
      </g>
     </g>
     <g id="text_12">
      <!-- 0.04 -->
      <g transform="translate(28.334375 209.682816)scale(0.1 -0.1)">
       <defs>
        <path d="M 37.796875 64.3125 
L 12.890625 25.390625 
L 37.796875 25.390625 
z
M 35.203125 72.90625 
L 47.609375 72.90625 
L 47.609375 25.390625 
L 58.015625 25.390625 
L 58.015625 17.1875 
L 47.609375 17.1875 
L 47.609375 0 
L 37.796875 0 
L 37.796875 17.1875 
L 4.890625 17.1875 
L 4.890625 26.703125 
z
" id="DejaVuSans-52"/>
       </defs>
       <use xlink:href="#DejaVuSans-48"/>
       <use x="63.623047" xlink:href="#DejaVuSans-46"/>
       <use x="95.410156" xlink:href="#DejaVuSans-48"/>
       <use x="159.033203" xlink:href="#DejaVuSans-52"/>
      </g>
     </g>
    </g>
    <g id="ytick_4">
     <g id="line2d_12">
      <g>
       <use style="stroke:#000000;stroke-width:0.8;" x="57.6" xlink:href="#m7ef4213708" y="155.033395"/>
      </g>
     </g>
     <g id="text_13">
      <!-- 0.06 -->
      <g transform="translate(28.334375 158.832614)scale(0.1 -0.1)">
       <defs>
        <path d="M 33.015625 40.375 
Q 26.375 40.375 22.484375 35.828125 
Q 18.609375 31.296875 18.609375 23.390625 
Q 18.609375 15.53125 22.484375 10.953125 
Q 26.375 6.390625 33.015625 6.390625 
Q 39.65625 6.390625 43.53125 10.953125 
Q 47.40625 15.53125 47.40625 23.390625 
Q 47.40625 31.296875 43.53125 35.828125 
Q 39.65625 40.375 33.015625 40.375 
z
M 52.59375 71.296875 
L 52.59375 62.3125 
Q 48.875 64.0625 45.09375 64.984375 
Q 41.3125 65.921875 37.59375 65.921875 
Q 27.828125 65.921875 22.671875 59.328125 
Q 17.53125 52.734375 16.796875 39.40625 
Q 19.671875 43.65625 24.015625 45.921875 
Q 28.375 48.1875 33.59375 48.1875 
Q 44.578125 48.1875 50.953125 41.515625 
Q 57.328125 34.859375 57.328125 23.390625 
Q 57.328125 12.15625 50.6875 5.359375 
Q 44.046875 -1.421875 33.015625 -1.421875 
Q 20.359375 -1.421875 13.671875 8.265625 
Q 6.984375 17.96875 6.984375 36.375 
Q 6.984375 53.65625 15.1875 63.9375 
Q 23.390625 74.21875 37.203125 74.21875 
Q 40.921875 74.21875 44.703125 73.484375 
Q 48.484375 72.75 52.59375 71.296875 
z
" id="DejaVuSans-54"/>
       </defs>
       <use xlink:href="#DejaVuSans-48"/>
       <use x="63.623047" xlink:href="#DejaVuSans-46"/>
       <use x="95.410156" xlink:href="#DejaVuSans-48"/>
       <use x="159.033203" xlink:href="#DejaVuSans-54"/>
      </g>
     </g>
    </g>
    <g id="ytick_5">
     <g id="line2d_13">
      <g>
       <use style="stroke:#000000;stroke-width:0.8;" x="57.6" xlink:href="#m7ef4213708" y="104.183194"/>
      </g>
     </g>
     <g id="text_14">
      <!-- 0.08 -->
      <g transform="translate(28.334375 107.982412)scale(0.1 -0.1)">
       <defs>
        <path d="M 31.78125 34.625 
Q 24.75 34.625 20.71875 30.859375 
Q 16.703125 27.09375 16.703125 20.515625 
Q 16.703125 13.921875 20.71875 10.15625 
Q 24.75 6.390625 31.78125 6.390625 
Q 38.8125 6.390625 42.859375 10.171875 
Q 46.921875 13.96875 46.921875 20.515625 
Q 46.921875 27.09375 42.890625 30.859375 
Q 38.875 34.625 31.78125 34.625 
z
M 21.921875 38.8125 
Q 15.578125 40.375 12.03125 44.71875 
Q 8.5 49.078125 8.5 55.328125 
Q 8.5 64.0625 14.71875 69.140625 
Q 20.953125 74.21875 31.78125 74.21875 
Q 42.671875 74.21875 48.875 69.140625 
Q 55.078125 64.0625 55.078125 55.328125 
Q 55.078125 49.078125 51.53125 44.71875 
Q 48 40.375 41.703125 38.8125 
Q 48.828125 37.15625 52.796875 32.3125 
Q 56.78125 27.484375 56.78125 20.515625 
Q 56.78125 9.90625 50.3125 4.234375 
Q 43.84375 -1.421875 31.78125 -1.421875 
Q 19.734375 -1.421875 13.25 4.234375 
Q 6.78125 9.90625 6.78125 20.515625 
Q 6.78125 27.484375 10.78125 32.3125 
Q 14.796875 37.15625 21.921875 38.8125 
z
M 18.3125 54.390625 
Q 18.3125 48.734375 21.84375 45.5625 
Q 25.390625 42.390625 31.78125 42.390625 
Q 38.140625 42.390625 41.71875 45.5625 
Q 45.3125 48.734375 45.3125 54.390625 
Q 45.3125 60.0625 41.71875 63.234375 
Q 38.140625 66.40625 31.78125 66.40625 
Q 25.390625 66.40625 21.84375 63.234375 
Q 18.3125 60.0625 18.3125 54.390625 
z
" id="DejaVuSans-56"/>
       </defs>
       <use xlink:href="#DejaVuSans-48"/>
       <use x="63.623047" xlink:href="#DejaVuSans-46"/>
       <use x="95.410156" xlink:href="#DejaVuSans-48"/>
       <use x="159.033203" xlink:href="#DejaVuSans-56"/>
      </g>
     </g>
    </g>
    <g id="ytick_6">
     <g id="line2d_14">
      <g>
       <use style="stroke:#000000;stroke-width:0.8;" x="57.6" xlink:href="#m7ef4213708" y="53.332992"/>
      </g>
     </g>
     <g id="text_15">
      <!-- 0.10 -->
      <g transform="translate(28.334375 57.132211)scale(0.1 -0.1)">
       <use xlink:href="#DejaVuSans-48"/>
       <use x="63.623047" xlink:href="#DejaVuSans-46"/>
       <use x="95.410156" xlink:href="#DejaVuSans-49"/>
       <use x="159.033203" xlink:href="#DejaVuSans-48"/>
      </g>
     </g>
    </g>
    <g id="text_16">
     <!-- Density -->
     <g transform="translate(22.254687 193.536594)rotate(-90)scale(0.1 -0.1)">
      <defs>
       <path d="M 19.671875 64.796875 
L 19.671875 8.109375 
L 31.59375 8.109375 
Q 46.6875 8.109375 53.6875 14.9375 
Q 60.6875 21.78125 60.6875 36.53125 
Q 60.6875 51.171875 53.6875 57.984375 
Q 46.6875 64.796875 31.59375 64.796875 
z
M 9.8125 72.90625 
L 30.078125 72.90625 
Q 51.265625 72.90625 61.171875 64.09375 
Q 71.09375 55.28125 71.09375 36.53125 
Q 71.09375 17.671875 61.125 8.828125 
Q 51.171875 0 30.078125 0 
L 9.8125 0 
z
" id="DejaVuSans-68"/>
       <path d="M 44.28125 53.078125 
L 44.28125 44.578125 
Q 40.484375 46.53125 36.375 47.5 
Q 32.28125 48.484375 27.875 48.484375 
Q 21.1875 48.484375 17.84375 46.4375 
Q 14.5 44.390625 14.5 40.28125 
Q 14.5 37.15625 16.890625 35.375 
Q 19.28125 33.59375 26.515625 31.984375 
L 29.59375 31.296875 
Q 39.15625 29.25 43.1875 25.515625 
Q 47.21875 21.78125 47.21875 15.09375 
Q 47.21875 7.46875 41.1875 3.015625 
Q 35.15625 -1.421875 24.609375 -1.421875 
Q 20.21875 -1.421875 15.453125 -0.5625 
Q 10.6875 0.296875 5.421875 2 
L 5.421875 11.28125 
Q 10.40625 8.6875 15.234375 7.390625 
Q 20.0625 6.109375 24.8125 6.109375 
Q 31.15625 6.109375 34.5625 8.28125 
Q 37.984375 10.453125 37.984375 14.40625 
Q 37.984375 18.0625 35.515625 20.015625 
Q 33.0625 21.96875 24.703125 23.78125 
L 21.578125 24.515625 
Q 13.234375 26.265625 9.515625 29.90625 
Q 5.8125 33.546875 5.8125 39.890625 
Q 5.8125 47.609375 11.28125 51.796875 
Q 16.75 56 26.8125 56 
Q 31.78125 56 36.171875 55.265625 
Q 40.578125 54.546875 44.28125 53.078125 
z
" id="DejaVuSans-115"/>
       <path d="M 9.421875 54.6875 
L 18.40625 54.6875 
L 18.40625 0 
L 9.421875 0 
z
M 9.421875 75.984375 
L 18.40625 75.984375 
L 18.40625 64.59375 
L 9.421875 64.59375 
z
" id="DejaVuSans-105"/>
       <path d="M 18.3125 70.21875 
L 18.3125 54.6875 
L 36.8125 54.6875 
L 36.8125 47.703125 
L 18.3125 47.703125 
L 18.3125 18.015625 
Q 18.3125 11.328125 20.140625 9.421875 
Q 21.96875 7.515625 27.59375 7.515625 
L 36.8125 7.515625 
L 36.8125 0 
L 27.59375 0 
Q 17.1875 0 13.234375 3.875 
Q 9.28125 7.765625 9.28125 18.015625 
L 9.28125 47.703125 
L 2.6875 47.703125 
L 2.6875 54.6875 
L 9.28125 54.6875 
L 9.28125 70.21875 
z
" id="DejaVuSans-116"/>
      </defs>
      <use xlink:href="#DejaVuSans-68"/>
      <use x="77.001953" xlink:href="#DejaVuSans-101"/>
      <use x="138.525391" xlink:href="#DejaVuSans-110"/>
      <use x="201.904297" xlink:href="#DejaVuSans-115"/>
      <use x="254.003906" xlink:href="#DejaVuSans-105"/>
      <use x="281.787109" xlink:href="#DejaVuSans-116"/>
      <use x="320.996094" xlink:href="#DejaVuSans-121"/>
     </g>
    </g>
   </g>
   <g id="line2d_15">
    <path clip-path="url(#p9ee75234dd)" d="M 73.832727 306.906643 
L 75.464157 306.131633 
L 77.095587 304.664934 
L 78.727017 302.083485 
L 80.358447 297.864299 
L 81.989877 291.473458 
L 83.621307 282.527695 
L 85.252736 271.003683 
L 88.515596 242.959371 
L 90.147026 229.270264 
L 91.778456 218.234962 
L 93.409886 211.477158 
L 95.041316 209.941025 
L 96.672746 213.642096 
L 98.304175 221.693084 
L 99.935605 232.586678 
L 103.198465 256.283545 
L 104.829895 266.551988 
L 106.461325 274.930113 
L 108.092755 281.385923 
L 109.724185 286.183682 
L 111.355614 289.711958 
L 112.987044 292.352933 
L 114.618474 294.410079 
L 116.249904 296.087343 
L 117.881334 297.5018 
L 119.512764 298.710972 
L 121.144194 299.740733 
L 122.775624 300.606044 
L 124.407053 301.322259 
L 127.669913 302.386366 
L 130.932773 303.10093 
L 135.827063 303.835235 
L 143.984212 305.024001 
L 148.878502 305.752633 
L 153.772791 306.218947 
L 160.298511 306.493243 
L 181.507099 307.080633 
L 205.978547 307.02895 
L 220.661416 307.252224 
L 227.187136 307.054247 
L 232.081425 306.685799 
L 243.501434 305.569263 
L 246.764294 305.689724 
L 250.027154 306.087901 
L 256.552873 307.066372 
L 259.815733 307.362466 
L 264.710023 307.53962 
L 274.498602 307.533757 
L 289.181471 307.522766 
L 303.86434 307.545232 
L 321.810069 307.492128 
L 362.595815 307.524811 
L 372.384395 307.513777 
L 383.804404 307.512878 
L 398.487273 307.583249 
L 398.487273 307.583249 
" style="fill:none;stroke:#1f77b4;stroke-linecap:square;stroke-width:1.5;"/>
   </g>
   <g id="patch_53">
    <path d="M 57.6 307.584 
L 57.6 41.472 
" style="fill:none;stroke:#000000;stroke-linecap:square;stroke-linejoin:miter;stroke-width:0.8;"/>
   </g>
   <g id="patch_54">
    <path d="M 414.72 307.584 
L 414.72 41.472 
" style="fill:none;stroke:#000000;stroke-linecap:square;stroke-linejoin:miter;stroke-width:0.8;"/>
   </g>
   <g id="patch_55">
    <path d="M 57.6 307.584 
L 414.72 307.584 
" style="fill:none;stroke:#000000;stroke-linecap:square;stroke-linejoin:miter;stroke-width:0.8;"/>
   </g>
   <g id="patch_56">
    <path d="M 57.6 41.472 
L 414.72 41.472 
" style="fill:none;stroke:#000000;stroke-linecap:square;stroke-linejoin:miter;stroke-width:0.8;"/>
   </g>
  </g>
 </g>
 <defs>
  <clipPath id="p9ee75234dd">
   <rect height="266.112" width="357.12" x="57.6" y="41.472"/>
  </clipPath>
 </defs>
</svg>
